<svg xmlns="http://www.w3.org/2000/svg" width="1400" height="980" viewBox="0 0 1400 980" fill="none">
<rect width="1400" height="980" fill="#0D1B2D"/>
<rect x="70" y="70" width="1260" height="840" rx="40" fill="#102744" stroke="#294A73"/>
<rect x="140" y="150" width="500" height="660" rx="28" fill="#142E50" stroke="#5378A8"/>
<rect x="195" y="205" width="170" height="550" rx="18" fill="#DCE7F2"/>
<rect x="415" y="205" width="170" height="550" rx="18" fill="#B9C7D9"/>
<rect x="240" y="260" width="80" height="410" rx="12" fill="#EAF3FB" opacity="0.8"/>
<rect x="460" y="260" width="80" height="410" rx="12" fill="#EAF3FB" opacity="0.3"/>
<rect x="705" y="170" width="510" height="230" rx="28" fill="#16355A" stroke="#5378A8"/>
<rect x="740" y="210" width="210" height="150" rx="20" fill="#FF9F1C"/>
<rect x="980" y="210" width="200" height="24" rx="12" fill="#DCE7F2"/>
<rect x="980" y="252" width="160" height="18" rx="9" fill="#9CB2CC"/>
<rect x="980" y="286" width="182" height="18" rx="9" fill="#9CB2CC"/>
<rect x="980" y="320" width="140" height="18" rx="9" fill="#9CB2CC"/>
<rect x="705" y="445" width="510" height="290" rx="28" fill="#16355A" stroke="#5378A8"/>
<rect x="745" y="490" width="190" height="180" rx="18" fill="#DCE7F2"/>
<rect x="965" y="490" width="210" height="36" rx="18" fill="#FFCA6E"/>
<rect x="965" y="545" width="170" height="18" rx="9" fill="#9CB2CC"/>
<rect x="965" y="580" width="185" height="18" rx="9" fill="#9CB2CC"/>
<rect x="965" y="615" width="145" height="18" rx="9" fill="#9CB2CC"/>
<text x="700" y="860" fill="#FFCA6E" font-family="Arial" font-size="54" font-weight="700">Modern Cabinet Project</text>
</svg>