<svg xmlns="http://www.w3.org/2000/svg" width="1100" height="760" viewBox="0 0 1100 760" fill="none">
<rect width="1100" height="760" rx="32" fill="#0D1B2D"/>
<rect x="70" y="70" width="960" height="620" rx="30" fill="#132B49" stroke="#355983"/>
<rect x="120" y="120" width="360" height="500" rx="24" fill="#E5EEF7"/>
<rect x="240" y="170" width="120" height="380" rx="14" fill="#B7C7D9"/>
<rect x="560" y="140" width="390" height="60" rx="20" fill="#FF9F1C"/>
<rect x="560" y="235" width="290" height="20" rx="10" fill="#D8E5F4"/>
<rect x="560" y="275" width="340" height="18" rx="9" fill="#9CB2CC"/>
<rect x="560" y="310" width="315" height="18" rx="9" fill="#9CB2CC"/>
<rect x="560" y="345" width="280" height="18" rx="9" fill="#9CB2CC"/>
<rect x="560" y="420" width="340" height="170" rx="24" fill="#183760"/>
<circle cx="630" cy="505" r="38" fill="#FFCA6E"/>
<rect x="690" y="470" width="160" height="22" rx="11" fill="#D8E5F4"/>
<rect x="690" y="510" width="130" height="18" rx="9" fill="#9CB2CC"/>
<rect x="690" y="545" width="145" height="18" rx="9" fill="#9CB2CC"/>
</svg>